<svg width="24" height="24" viewBox="0 0 24 24" fill="none" xmlns="http://www.w3.org/2000/svg">
<path d="M21.9027 5.96017C21.1855 6.26954 20.4051 6.4922 19.6012 6.57892C20.4358 6.08306 21.0608 5.2997 21.359 4.37579C20.5758 4.8417 19.7178 5.16841 18.823 5.34142C18.4491 4.94163 17.9968 4.62315 17.4944 4.40581C16.992 4.18847 16.4502 4.07693 15.9027 4.07813C13.6879 4.07813 11.9066 5.87345 11.9066 8.07657C11.9066 8.38595 11.9441 8.69532 12.0051 8.99298C8.68867 8.81954 5.73086 7.23517 3.76445 4.80938C3.40615 5.42137 3.21839 6.1182 3.2207 6.82735C3.2207 8.21485 3.92617 9.43829 5.00195 10.1578C4.36798 10.1329 3.74885 9.9586 3.19492 9.64923V9.69845C3.19492 11.6414 4.56836 13.2516 6.39883 13.6219C6.05514 13.7112 5.70158 13.7568 5.34648 13.7578C5.08633 13.7578 4.84023 13.732 4.5918 13.6969C5.09805 15.2813 6.57227 16.432 8.32773 16.4695C6.9543 17.5453 5.23398 18.1781 3.36602 18.1781C3.03086 18.1781 2.72148 18.1664 2.40039 18.1289C4.17227 19.2656 6.27461 19.9219 8.53867 19.9219C15.8887 19.9219 19.9105 13.8328 19.9105 8.54767C19.9105 8.37423 19.9105 8.20079 19.8988 8.02735C20.677 7.45782 21.359 6.75235 21.9027 5.96017Z" fill="white"/>
</svg>
