<svg width="24" height="24" viewBox="0 0 24 24" fill="none" xmlns="http://www.w3.org/2000/svg">
<path d="M12.0011 7.19298C9.34093 7.19298 7.19406 9.33986 7.19406 12C7.19406 14.6602 9.34093 16.807 12.0011 16.807C14.6612 16.807 16.8081 14.6602 16.8081 12C16.8081 9.33986 14.6612 7.19298 12.0011 7.19298ZM12.0011 15.1242C10.2808 15.1242 8.87687 13.7203 8.87687 12C8.87687 10.2797 10.2808 8.87579 12.0011 8.87579C13.7214 8.87579 15.1253 10.2797 15.1253 12C15.1253 13.7203 13.7214 15.1242 12.0011 15.1242ZM17.005 5.87579C16.3839 5.87579 15.8823 6.37736 15.8823 6.99845C15.8823 7.61954 16.3839 8.12111 17.005 8.12111C17.6261 8.12111 18.1277 7.62189 18.1277 6.99845C18.1278 6.85097 18.0989 6.7049 18.0426 6.56861C17.9862 6.43232 17.9035 6.30848 17.7992 6.2042C17.695 6.09991 17.5711 6.01723 17.4348 5.96087C17.2985 5.90452 17.1525 5.87561 17.005 5.87579ZM21.3714 12C21.3714 10.7063 21.3831 9.42423 21.3105 8.13282C21.2378 6.63282 20.8956 5.30158 19.7987 4.2047C18.6995 3.10548 17.3706 2.76564 15.8706 2.69298C14.5769 2.62033 13.2948 2.63204 12.0034 2.63204C10.7097 2.63204 9.42765 2.62033 8.13624 2.69298C6.63624 2.76564 5.30499 3.10783 4.20812 4.2047C3.1089 5.30392 2.76906 6.63282 2.6964 8.13282C2.62374 9.42657 2.63546 10.7086 2.63546 12C2.63546 13.2914 2.62374 14.5758 2.6964 15.8672C2.76906 17.3672 3.11124 18.6984 4.20812 19.7953C5.30734 20.8945 6.63624 21.2344 8.13624 21.307C9.42999 21.3797 10.712 21.368 12.0034 21.368C13.2972 21.368 14.5792 21.3797 15.8706 21.307C17.3706 21.2344 18.7019 20.8922 19.7987 19.7953C20.898 18.6961 21.2378 17.3672 21.3105 15.8672C21.3855 14.5758 21.3714 13.2938 21.3714 12ZM19.3089 17.5266C19.1378 17.9531 18.9316 18.2719 18.6011 18.6C18.2706 18.9305 17.9542 19.1367 17.5276 19.3078C16.2948 19.7977 13.3675 19.6875 12.0011 19.6875C10.6347 19.6875 7.70499 19.7977 6.47218 19.3102C6.04562 19.1391 5.72687 18.9328 5.39874 18.6024C5.06828 18.2719 4.86203 17.9555 4.69093 17.5289C4.20343 16.2938 4.31359 13.3664 4.31359 12C4.31359 10.6336 4.20343 7.70392 4.69093 6.47111C4.86203 6.04454 5.06828 5.72579 5.39874 5.39767C5.72921 5.06954 6.04562 4.86095 6.47218 4.68986C7.70499 4.20236 10.6347 4.31251 12.0011 4.31251C13.3675 4.31251 16.2972 4.20236 17.53 4.68986C17.9566 4.86095 18.2753 5.0672 18.6034 5.39767C18.9339 5.72814 19.1402 6.04454 19.3112 6.47111C19.7987 7.70392 19.6886 10.6336 19.6886 12C19.6886 13.3664 19.7987 16.2938 19.3089 17.5266Z" fill="white"/>
</svg>
