<svg width="41" height="41" viewBox="0 0 41 41" fill="none" xmlns="http://www.w3.org/2000/svg">
<circle cx="20.2469" cy="20.1155" r="20.0059" fill="#FB3F5C" fill-opacity="0.1"/>
<path d="M27.324 22.5328C26.2986 22.5328 25.3067 22.3661 24.3814 22.066C24.0897 21.966 23.7646 22.041 23.5395 22.2661L22.2308 23.9082C19.8718 22.7829 17.6628 20.6573 16.4874 18.2149L18.1129 16.8312C18.338 16.5978 18.4047 16.2727 18.313 15.9809C18.0045 15.0556 17.8462 14.0637 17.8462 13.0384C17.8462 12.5882 17.471 12.2131 17.0209 12.2131H14.1367C13.6866 12.2131 13.1448 12.4132 13.1448 13.0384C13.1448 20.7823 19.5883 27.2176 27.324 27.2176C27.9158 27.2176 28.1492 26.6924 28.1492 26.2339V23.3581C28.1492 22.908 27.7741 22.5328 27.324 22.5328Z" fill="#FB3F5C"/>
</svg>
