<svg width="174" height="42" viewBox="0 0 174 42" fill="none" xmlns="http://www.w3.org/2000/svg">
<path d="M20.9546 33.8462H153.794" stroke="#FB3F5C" stroke-width="16.0047"/>
<path d="M12.4721 32.6204C10.2101 32.6204 8.26816 32.1403 6.64635 31.18C5.02454 30.1984 3.77617 28.8433 2.90125 27.1148C2.02632 25.365 1.58886 23.3484 1.58886 21.065C1.58886 18.7817 2.02632 16.7651 2.90125 15.0153C3.77617 13.2654 5.02454 11.8997 6.64635 10.9181C8.26816 9.93643 10.2101 9.44562 12.4721 9.44562C15.1609 9.44562 17.3588 10.1178 19.066 11.4622C20.7945 12.7853 21.8722 14.6525 22.299 17.0639H17.7856C17.5082 15.8475 16.9107 14.8979 15.9931 14.215C15.0968 13.5108 13.9018 13.1587 12.408 13.1587C10.3381 13.1587 8.71629 13.8629 7.54262 15.2713C6.36894 16.6797 5.7821 18.611 5.7821 21.065C5.7821 23.5191 6.36894 25.4503 7.54262 26.8587C8.71629 28.2458 10.3381 28.9394 12.408 28.9394C13.9018 28.9394 15.0968 28.6193 15.9931 27.9791C16.9107 27.3175 17.5082 26.4106 17.7856 25.2583H22.299C21.8722 27.563 20.7945 29.3661 19.066 30.6679C17.3588 31.9696 15.1609 32.6204 12.4721 32.6204ZM33.448 32.6204C31.9115 32.6204 30.5245 32.2683 29.2868 31.5641C28.0704 30.8599 27.0995 29.889 26.3739 28.6513C25.6697 27.3922 25.3176 25.9411 25.3176 24.298C25.3176 22.6548 25.6804 21.2144 26.4059 19.9767C27.1315 18.7177 28.1024 17.7361 29.3188 17.0318C30.5565 16.3276 31.9436 15.9755 33.48 15.9755C34.9951 15.9755 36.3609 16.3276 37.5772 17.0318C38.8149 17.7361 39.7859 18.7177 40.4901 19.9767C41.2156 21.2144 41.5784 22.6548 41.5784 24.298C41.5784 25.9411 41.2156 27.3922 40.4901 28.6513C39.7859 29.889 38.8149 30.8599 37.5772 31.5641C36.3395 32.2683 34.9631 32.6204 33.448 32.6204ZM33.448 29.0674C34.515 29.0674 35.4432 28.6726 36.2328 27.883C37.0224 27.0721 37.4172 25.8771 37.4172 24.298C37.4172 22.7189 37.0224 21.5345 36.2328 20.7449C35.4432 19.934 34.5256 19.5286 33.48 19.5286C32.3917 19.5286 31.4527 19.934 30.6632 20.7449C29.8949 21.5345 29.5108 22.7189 29.5108 24.298C29.5108 25.8771 29.8949 27.0721 30.6632 27.883C31.4527 28.6726 32.381 29.0674 33.448 29.0674ZM45.2417 32.2363V16.3597H48.8588L49.1789 19.0484C49.6697 18.1095 50.3739 17.3626 51.2915 16.8078C52.2304 16.253 53.3294 15.9755 54.5885 15.9755C56.5517 15.9755 58.0775 16.5944 59.1658 17.8321C60.2541 19.0698 60.7983 20.8837 60.7983 23.2737V32.2363H56.7011V23.6578C56.7011 22.2921 56.4237 21.2464 55.8688 20.5209C55.314 19.7953 54.4498 19.4326 53.2761 19.4326C52.1237 19.4326 51.1741 19.838 50.4272 20.6489C49.7017 21.4598 49.3389 22.5908 49.3389 24.0419V32.2363H45.2417ZM71.7903 32.2363C70.1258 32.2363 68.7921 31.8309 67.7891 31.02C66.7861 30.2091 66.2847 28.7686 66.2847 26.6987V19.7847H63.5639V16.3597H66.2847L66.7648 12.1024H70.3819V16.3597H74.6711V19.7847H70.3819V26.7307C70.3819 27.4989 70.5419 28.0324 70.862 28.3312C71.2034 28.6086 71.7796 28.7473 72.5905 28.7473H74.5751V32.2363H71.7903ZM83.6625 32.6204C82.2968 32.6204 81.1765 32.407 80.3015 31.9803C79.4266 31.5321 78.7758 30.9453 78.349 30.2197C77.9222 29.4942 77.7088 28.694 77.7088 27.819C77.7088 26.3466 78.2849 25.1516 79.4373 24.234C80.5896 23.3164 82.3181 22.8576 84.6228 22.8576H88.656V22.4735C88.656 21.3851 88.3466 20.5849 87.7277 20.0727C87.1089 19.5606 86.3407 19.3045 85.4231 19.3045C84.5908 19.3045 83.8653 19.5072 83.2464 19.9127C82.6276 20.2968 82.2434 20.873 82.0941 21.6412H78.0929C78.1996 20.4889 78.5837 19.4859 79.2452 18.6323C79.9281 17.7787 80.803 17.1279 81.87 16.6797C82.937 16.2103 84.132 15.9755 85.4551 15.9755C87.7171 15.9755 89.4989 16.541 90.8006 17.672C92.1024 18.803 92.7532 20.4035 92.7532 22.4735V32.2363H89.2642L88.8801 29.6756C88.4106 30.5292 87.7491 31.2334 86.8955 31.7882C86.0632 32.343 84.9856 32.6204 83.6625 32.6204ZM84.5908 29.4195C85.7645 29.4195 86.6714 29.0354 87.3116 28.2672C87.9731 27.4989 88.3893 26.5493 88.56 25.4183H85.0709C83.9826 25.4183 83.2037 25.621 82.7343 26.0265C82.2648 26.4106 82.0301 26.8908 82.0301 27.4669C82.0301 28.0858 82.2648 28.5659 82.7343 28.9073C83.2037 29.2488 83.8226 29.4195 84.5908 29.4195ZM104.441 32.6204C102.82 32.6204 101.39 32.2683 100.152 31.5641C98.9144 30.8599 97.9328 29.8783 97.2073 28.6193C96.5031 27.3602 96.151 25.9198 96.151 24.298C96.151 22.6762 96.5031 21.2358 97.2073 19.9767C97.9328 18.7177 98.9144 17.7361 100.152 17.0318C101.39 16.3276 102.82 15.9755 104.441 15.9755C106.469 15.9755 108.176 16.509 109.563 17.576C110.95 18.6217 111.836 20.0727 112.22 21.9293H107.898C107.685 21.1611 107.258 20.5636 106.618 20.1368C105.999 19.6886 105.263 19.4646 104.409 19.4646C103.278 19.4646 102.318 19.8914 101.529 20.7449C100.739 21.5985 100.344 22.7829 100.344 24.298C100.344 25.8131 100.739 26.9975 101.529 27.851C102.318 28.7046 103.278 29.1314 104.409 29.1314C105.263 29.1314 105.999 28.918 106.618 28.4912C107.258 28.0644 107.685 27.4563 107.898 26.6667H112.22C111.836 28.4592 110.95 29.8996 109.563 30.988C108.176 32.0763 106.469 32.6204 104.441 32.6204ZM122.712 32.2363C121.047 32.2363 119.713 31.8309 118.71 31.02C117.707 30.2091 117.206 28.7686 117.206 26.6987V19.7847H114.485V16.3597H117.206L117.686 12.1024H121.303V16.3597H125.592V19.7847H121.303V26.7307C121.303 27.4989 121.463 28.0324 121.783 28.3312C122.125 28.6086 122.701 28.7473 123.512 28.7473H125.496V32.2363H122.712ZM145.476 32.6204C143.833 32.6204 142.35 32.3003 141.027 31.6602C139.704 30.9986 138.647 30.0063 137.858 28.6833C137.09 27.3602 136.705 25.6851 136.705 23.6578V9.82973H140.803V23.6898C140.803 25.4397 141.219 26.7414 142.051 27.595C142.905 28.4485 144.078 28.8753 145.572 28.8753C147.044 28.8753 148.207 28.4485 149.061 27.595C149.915 26.7414 150.341 25.4397 150.341 23.6898V9.82973H154.439V23.6578C154.439 25.6851 154.033 27.3602 153.222 28.6833C152.411 30.0063 151.323 30.9986 149.957 31.6602C148.613 32.3003 147.119 32.6204 145.476 32.6204ZM165.087 32.6204C163.679 32.6204 162.441 32.3964 161.374 31.9482C160.307 31.4788 159.453 30.8386 158.813 30.0277C158.173 29.2168 157.789 28.2778 157.661 27.2108H161.79C161.918 27.8297 162.26 28.3632 162.814 28.8113C163.391 29.2381 164.127 29.4515 165.023 29.4515C165.919 29.4515 166.57 29.2701 166.976 28.9073C167.402 28.5446 167.616 28.1285 167.616 27.659C167.616 26.9761 167.317 26.5173 166.719 26.2826C166.122 26.0265 165.29 25.7811 164.223 25.5464C163.54 25.397 162.846 25.2156 162.142 25.0022C161.438 24.7888 160.787 24.5221 160.19 24.202C159.613 23.8605 159.144 23.4337 158.781 22.9216C158.418 22.3881 158.237 21.7372 158.237 20.969C158.237 19.5606 158.792 18.3762 159.901 17.416C161.032 16.4557 162.612 15.9755 164.639 15.9755C166.517 15.9755 168.011 16.413 169.12 17.2879C170.251 18.1628 170.923 19.3685 171.137 20.905H167.264C167.029 19.7313 166.143 19.1445 164.607 19.1445C163.839 19.1445 163.241 19.2938 162.814 19.5926C162.409 19.8914 162.206 20.2648 162.206 20.7129C162.206 21.1824 162.516 21.5558 163.134 21.8333C163.753 22.1107 164.575 22.3668 165.599 22.6015C166.709 22.8576 167.722 23.1457 168.64 23.4657C169.579 23.7645 170.326 24.2233 170.881 24.8422C171.436 25.4397 171.713 26.3039 171.713 27.4349C171.734 28.4165 171.478 29.3021 170.945 30.0917C170.411 30.8813 169.643 31.5001 168.64 31.9482C167.637 32.3964 166.453 32.6204 165.087 32.6204Z" fill="white"/>
</svg>
