<svg width="41" height="41" viewBox="0 0 41 41" fill="none" xmlns="http://www.w3.org/2000/svg">
<circle cx="20.2469" cy="20.9405" r="20.0059" fill="#FB3F5C" fill-opacity="0.1"/>
<g clip-path="url(#clip0)">
<path d="M28.0914 12.9209H11.6022C11.3315 12.9209 11.0781 12.9874 10.8489 13.0971L19.8077 22.056L21.8157 20.1262C21.8157 20.1262 21.8159 20.126 21.8159 20.126C21.8159 20.1259 21.8161 20.1258 21.8161 20.1258L28.845 13.0973C28.6157 12.9875 28.3622 12.9209 28.0914 12.9209Z" fill="#FB3F5C"/>
<path d="M29.6738 13.9263L23.0592 20.5405L29.6735 27.1548C29.7832 26.9256 29.8498 26.6722 29.8498 26.4015V14.6793C29.8498 14.4088 29.7834 14.1554 29.6738 13.9263Z" fill="#FB3F5C"/>
<path d="M10.0201 13.9259C9.91042 14.1552 9.84387 14.4085 9.84387 14.6792V26.4014C9.84387 26.6719 9.91034 26.9254 10.0199 27.1545L16.6345 20.5403L10.0201 13.9259Z" fill="#FB3F5C"/>
<path d="M22.2304 21.3692L20.2222 23.2992C20.1077 23.4137 19.9577 23.4709 19.8078 23.4709C19.6579 23.4709 19.5079 23.4137 19.3934 23.2992L17.4633 21.3691L10.8486 27.9834C11.0779 28.0932 11.3315 28.1598 11.6022 28.1598H28.0914C28.3621 28.1598 28.6155 28.0932 28.8448 27.9835L22.2304 21.3692Z" fill="#FB3F5C"/>
</g>
<defs>
<clipPath id="clip0">
<rect width="20.0059" height="20.0059" fill="white" transform="translate(9.84387 10.5374)"/>
</clipPath>
</defs>
</svg>
