<svg width="25" height="25" viewBox="0 0 25 25" fill="none" xmlns="http://www.w3.org/2000/svg">
<path d="M21.875 0H3.125C1.40104 0 0 1.40104 0 3.125V21.875C0 23.5979 1.40104 25 3.125 25H21.875C23.5979 25 25 23.5979 25 21.875V3.125C25 1.40104 23.5979 0 21.875 0Z" fill="#3B5999"/>
<path d="M17.1875 12.5V9.375C17.1875 8.5125 17.8875 8.59375 18.75 8.59375H20.3125V4.6875H17.1875C14.5979 4.6875 12.5 6.78542 12.5 9.375V12.5H9.375V16.4062H12.5V25H17.1875V16.4062H19.5312L21.0938 12.5H17.1875Z" fill="white"/>
</svg>
