<svg width="78" height="40" viewBox="0 0 78 40" fill="none" xmlns="http://www.w3.org/2000/svg">
<path opacity="0.997" fill-rule="evenodd" clip-rule="evenodd" d="M28.7716 0C28.3833 4.32261e-05 28.011 0.154566 27.7365 0.429582C27.4619 0.704598 27.3077 1.07759 27.3076 1.46652V9.03009C27.3076 9.41903 27.4619 9.79204 27.7364 10.0671C28.011 10.3421 28.3833 10.4966 28.7716 10.4966C29.1598 10.4966 29.5322 10.3421 29.8068 10.0671C30.0813 9.79204 30.2355 9.41903 30.2355 9.03009V2.93304H74.2329V28.2442H60.1002C59.7119 28.2442 59.3395 28.3987 59.065 28.6737C58.7905 28.9487 58.6362 29.3217 58.6362 29.7107C58.6362 30.0996 58.7905 30.4726 59.065 30.7477C59.3395 31.0227 59.7119 31.1772 60.1002 31.1772H75.6969C76.0851 31.1772 76.4575 31.0226 76.732 30.7476C77.0065 30.4726 77.1608 30.0996 77.1608 29.7107V1.46652C77.1608 1.07759 77.0066 0.704598 76.732 0.429582C76.4575 0.154566 76.0851 4.36316e-05 75.6969 0H28.7716Z" fill="#FB3F5C"/>
<path d="M0 11.1335V13.1983H1.57397V20.8378H3.95366V13.1983H5.86492V11.1335H3.95366V10.7393C3.95366 10.3076 4.06609 9.95097 4.30968 9.68818C4.53453 9.42539 4.89055 9.294 5.34026 9.294H5.86492V7.22925H4.85308C3.8225 7.22925 3.01678 7.52957 2.43591 8.13023C1.85504 8.73088 1.57397 9.53802 1.57397 10.5704V11.1335H0Z" fill="#04172A"/>
<path d="M13.6313 16.8595C13.6313 17.5165 13.444 18.0421 13.0879 18.4175C12.7319 18.7929 12.2822 18.9806 11.7201 18.9806C11.1205 18.9806 10.652 18.7929 10.3335 18.3987C10.0149 18.0045 9.86505 17.4977 9.86505 16.8595V11.1345H7.48535V17.1411C7.48535 18.3236 7.78516 19.2809 8.4035 20.013C9.00311 20.7638 9.88378 21.1204 11.008 21.1204C11.5702 21.1204 12.0948 21.0078 12.5633 20.7638C13.013 20.5198 13.4065 20.1631 13.725 19.7126V20.8389H16.011V11.1345H13.6313V16.8595Z" fill="#04172A"/>
<path d="M20.8826 15.1326C20.8826 14.4756 21.07 13.95 21.4635 13.5746C21.8383 13.1992 22.3254 12.9927 22.8876 12.9927C23.5059 12.9927 23.9744 13.1992 24.2742 13.5934C24.574 13.9876 24.7426 14.5131 24.7426 15.1701V20.8388H27.1223V14.8135C27.1223 13.6309 26.8038 12.6736 26.2041 11.9416C25.5858 11.2283 24.7613 10.8529 23.712 10.8529C22.4566 10.8529 21.4822 11.3409 20.7889 12.2795V11.1345H18.5029V20.8388H20.8826V15.1326Z" fill="#04172A"/>
<path d="M33.247 21.1201C33.9028 21.1201 34.4837 20.9887 34.9896 20.7071C35.4768 20.4444 35.889 20.0502 36.2263 19.5621V20.8385H38.5123V7.22995H36.1514V12.3167C35.8141 11.8663 35.4018 11.5096 34.9147 11.2468C34.4275 10.984 33.8653 10.8526 33.247 10.8526C32.4038 10.8526 31.6543 11.0779 31.0172 11.5096C30.3801 11.9413 29.8742 12.542 29.4994 13.3116C29.1247 14.0812 28.9561 14.9634 28.9561 15.977C28.9561 16.9906 29.1247 17.8728 29.4994 18.6424C29.8742 19.4307 30.3801 20.0314 31.0172 20.4631C31.6543 20.9136 32.4038 21.1201 33.247 21.1201ZM33.8091 18.999C33.0971 18.999 32.4975 18.7362 32.0478 18.1731C31.5981 17.6288 31.3732 16.8967 31.3732 15.977C31.3732 15.0572 31.5981 14.3252 32.0478 13.7808C32.4975 13.2553 33.0971 12.9737 33.8091 12.9737C34.5212 12.9737 35.1208 13.2553 35.5705 13.7996C36.0202 14.344 36.2638 15.076 36.2638 15.977C36.2638 16.8967 36.0202 17.6288 35.5705 18.1731C35.1208 18.7362 34.5212 18.999 33.8091 18.999Z" fill="#04172A"/>
<path d="M44.5718 20.8698H46.9515V15.0698C46.9515 14.4316 47.1014 13.9435 47.4387 13.5681C47.7572 13.2115 48.1694 13.0238 48.6753 13.0238C49.1813 13.0238 49.5748 13.2115 49.8558 13.5681C50.1182 13.9435 50.2681 14.4316 50.2681 15.0698V20.8698H52.6478V15.0698C52.6478 14.4316 52.7977 13.9435 53.1349 13.5681C53.4722 13.2115 53.8844 13.0238 54.3904 13.0238C54.8963 13.0238 55.2898 13.2115 55.5708 13.5681C55.8332 13.9435 55.9831 14.4316 55.9831 15.0698V20.8698H58.3628V14.7694C58.3628 13.5681 58.063 12.6296 57.4821 11.9351C56.8825 11.2406 56.0955 10.8839 55.1211 10.8839C54.5215 10.8839 53.9407 11.0341 53.416 11.2969C52.8913 11.5784 52.4416 11.9726 52.1044 12.4794C51.8233 11.9914 51.4673 11.5972 51.0176 11.3157C50.5679 11.0341 50.0432 10.8839 49.4811 10.8839C48.9189 10.8839 48.4318 11.0153 47.9821 11.2406C47.5323 11.4658 47.1576 11.8037 46.8578 12.2166V11.1655H44.5718V20.8698Z" fill="#FB3F5C"/>
<path d="M61.4874 24.717H64.0358L69.3198 11.1647H66.7527L64.3918 18.091L61.9933 11.1647H59.2764L63.0801 20.8691L61.4874 24.717Z" fill="#FB3F5C"/>
<path d="M1.54834 36.1519H3.92803V22.5433H1.54834V36.1519Z" fill="#04172A"/>
<path d="M9.11364 36.434C9.67577 36.434 10.2192 36.3214 10.7438 36.0774C11.2685 35.8522 11.6994 35.4767 12.018 34.9512V36.1525H14.2103V30.0709C14.2103 28.7382 13.8356 27.7621 13.1235 27.1239C12.3927 26.4857 11.3996 26.1666 10.1442 26.1666C9.00121 26.1666 8.08306 26.4482 7.37103 26.9925C6.65899 27.5556 6.20929 28.2313 6.05939 29.0572H8.34539C8.42034 28.8132 8.60772 28.588 8.90753 28.4003C9.20733 28.2126 9.58208 28.1187 10.0693 28.1187C10.6127 28.1187 11.0436 28.2689 11.3809 28.5317C11.6995 28.7945 11.8681 29.2262 11.8681 29.8268V30.1835H9.90063C8.58898 30.1835 7.57715 30.465 6.86511 31.0281C6.13434 31.5913 5.77832 32.3796 5.77832 33.3745C5.77832 34.313 6.07812 35.045 6.67773 35.6081C7.27734 36.1713 8.1018 36.434 9.11364 36.434ZM9.71325 34.5195C9.22607 34.5195 8.85131 34.4256 8.55151 34.2004C8.2517 33.9751 8.1018 33.656 8.1018 33.2243C8.1018 32.8113 8.2517 32.4735 8.58898 32.2482C8.92626 32.023 9.39471 31.8916 10.0131 31.8916H11.8681V32.511C11.8681 32.9615 11.7557 33.3181 11.5308 33.6185C11.306 33.9188 11.0436 34.144 10.7063 34.2942C10.3691 34.4444 10.0505 34.5195 9.71325 34.5195Z" fill="#04172A"/>
<path d="M16.626 40.0004H18.9869V34.9699C19.3242 35.4392 19.7364 35.7958 20.2236 36.0586C20.7108 36.3214 21.2542 36.434 21.8913 36.434C22.7157 36.434 23.4653 36.2276 24.1023 35.7958C24.7394 35.3641 25.2453 34.7635 25.6201 33.9751C25.9948 33.2055 26.1822 32.3233 26.1822 31.3097C26.1822 30.2961 25.9948 29.4139 25.6201 28.6443C25.2453 27.8747 24.7394 27.274 24.1023 26.8236C23.4653 26.3918 22.7157 26.1666 21.8913 26.1666C21.2167 26.1666 20.6359 26.3168 20.1487 26.5795C19.6428 26.8611 19.2305 27.2365 18.912 27.7245V26.4482H16.626V40.0004ZM21.3292 34.313C20.5984 34.313 19.9988 34.0502 19.5491 33.5058C19.0994 32.9615 18.8745 32.2295 18.8745 31.3097C18.8745 30.4087 19.0994 29.6767 19.5491 29.1136C19.9988 28.5692 20.5984 28.2877 21.3292 28.2877C22.0412 28.2877 22.6221 28.5692 23.0718 29.1136C23.5215 29.6579 23.7651 30.3899 23.7651 31.3097C23.7651 32.2295 23.5215 32.9615 23.0718 33.5058C22.6221 34.0502 22.0412 34.313 21.3292 34.313Z" fill="#04172A"/>
<path d="M31.7913 36.2277H33.028V34.163H32.3347C31.9412 34.163 31.6414 34.0504 31.4353 33.8251C31.2104 33.5999 31.1168 33.2808 31.1168 32.8303V28.5131H33.028V26.4483H31.1168V23.1072C30.3485 23.3324 29.5615 23.4638 28.7371 23.5014V26.4483H27.1631V28.5131H28.7371V33.0931C28.7371 34.1254 28.9994 34.9138 29.524 35.4394C30.0487 35.9649 30.8169 36.2277 31.7913 36.2277Z" fill="#04172A"/>
<path d="M39.1788 36.434C40.1156 36.434 40.9588 36.2276 41.6896 35.7771C42.4204 35.3454 43.0013 34.7447 43.4135 33.9563C43.8257 33.1867 44.0318 32.3045 44.0318 31.2909C44.0318 30.2773 43.8257 29.3951 43.4135 28.6255C43.0013 27.8559 42.4204 27.2553 41.6896 26.8236C40.9588 26.3918 40.1156 26.1666 39.1788 26.1666C38.2231 26.1666 37.3799 26.3918 36.6492 26.8236C35.9184 27.2553 35.3563 27.8559 34.944 28.6255C34.5318 29.3951 34.3257 30.2773 34.3257 31.2909C34.3257 32.3045 34.5318 33.1867 34.944 33.9563C35.3563 34.7447 35.9184 35.3454 36.6492 35.7771C37.3799 36.2276 38.2231 36.434 39.1788 36.434ZM39.1788 34.313C38.448 34.313 37.8671 34.0502 37.4174 33.4871C36.9677 32.9427 36.7429 32.2107 36.7429 31.2909C36.7429 30.3712 36.9677 29.6391 37.4174 29.0948C37.8671 28.5692 38.448 28.2877 39.1788 28.2877C39.8908 28.2877 40.4904 28.5692 40.9401 29.0948C41.3898 29.6391 41.6147 30.3712 41.6147 31.2909C41.6147 32.2107 41.3898 32.9427 40.9401 33.4871C40.4904 34.0502 39.8908 34.313 39.1788 34.313Z" fill="#04172A"/>
<path d="M45.9404 40.0004H48.3014V34.9699C48.6387 35.4392 49.0509 35.7958 49.5381 36.0586C50.0253 36.3214 50.5687 36.434 51.2057 36.434C52.0302 36.434 52.7797 36.2276 53.4168 35.7958C54.0539 35.3641 54.5598 34.7635 54.9346 33.9751C55.3093 33.2055 55.4967 32.3233 55.4967 31.3097C55.4967 30.2961 55.3093 29.4139 54.9346 28.6443C54.5598 27.8747 54.0539 27.274 53.4168 26.8236C52.7797 26.3918 52.0302 26.1666 51.2057 26.1666C50.5312 26.1666 49.9503 26.3168 49.4631 26.5795C48.9572 26.8611 48.545 27.2365 48.2264 27.7245V26.4482H45.9404V40.0004ZM50.6436 34.313C49.9128 34.313 49.3132 34.0502 48.8635 33.5058C48.4138 32.9615 48.189 32.2295 48.189 31.3097C48.189 30.4087 48.4138 29.6767 48.8635 29.1136C49.3132 28.5692 49.9128 28.2877 50.6436 28.2877C51.3556 28.2877 51.9365 28.5692 52.3862 29.1136C52.8359 29.6579 53.0795 30.3899 53.0795 31.3097C53.0795 32.2295 52.8359 32.9615 52.3862 33.5058C51.9365 34.0502 51.3556 34.313 50.6436 34.313Z" fill="#04172A"/>
</svg>
