<svg width="25" height="25" viewBox="0 0 25 25" fill="none" xmlns="http://www.w3.org/2000/svg">
<path d="M22.714 10.4599H21.8749V10.4167H12.4999V14.5834H18.3869C17.528 17.0089 15.2202 18.75 12.4999 18.75C9.04836 18.75 6.24992 15.9516 6.24992 12.5C6.24992 9.04848 9.04836 6.25004 12.4999 6.25004C14.0931 6.25004 15.5426 6.85108 16.6463 7.83285L19.5926 4.8865C17.7322 3.15264 15.2437 2.08337 12.4999 2.08337C6.74731 2.08337 2.08325 6.74744 2.08325 12.5C2.08325 18.2526 6.74731 22.9167 12.4999 22.9167C18.2525 22.9167 22.9166 18.2526 22.9166 12.5C22.9166 11.8016 22.8447 11.1198 22.714 10.4599Z" fill="#FFC107"/>
<path d="M3.28442 7.6516L6.70682 10.1615C7.63286 7.86879 9.87557 6.25004 12.5 6.25004C14.0933 6.25004 15.5428 6.85108 16.6464 7.83285L19.5928 4.8865C17.7323 3.15264 15.2438 2.08337 12.5 2.08337C8.49901 2.08337 5.02922 4.34223 3.28442 7.6516Z" fill="#FF3D00"/>
<path d="M12.5 22.9167C15.1906 22.9167 17.6354 21.887 19.4839 20.2125L16.2599 17.4844C15.1789 18.3064 13.8581 18.7511 12.5 18.75C9.79062 18.75 7.4901 17.0224 6.62344 14.6115L3.22656 17.2286C4.95052 20.6021 8.45156 22.9167 12.5 22.9167Z" fill="#4CAF50"/>
<path d="M22.7141 10.4599H21.875V10.4166H12.5V14.5833H18.387C17.9762 15.7377 17.2361 16.7464 16.2583 17.4849L16.2599 17.4838L19.4839 20.2119C19.2557 20.4192 22.9167 17.7083 22.9167 12.5C22.9167 11.8015 22.8448 11.1198 22.7141 10.4599Z" fill="#1976D2"/>
</svg>
