<svg width="32" height="32" viewBox="0 0 32 32" fill="none" xmlns="http://www.w3.org/2000/svg">
<path d="M22.6667 2.66663H9.33342C5.65152 2.66663 2.66675 5.65139 2.66675 9.33329V22.6666C2.66675 26.3485 5.65152 29.3333 9.33342 29.3333H22.6667C26.3486 29.3333 29.3334 26.3485 29.3334 22.6666V9.33329C29.3334 5.65139 26.3486 2.66663 22.6667 2.66663Z" stroke="#04172A" stroke-width="2" stroke-linecap="round" stroke-linejoin="round"/>
<path d="M21.3333 15.16C21.4979 16.2697 21.3084 17.403 20.7917 18.3987C20.275 19.3945 19.4575 20.2019 18.4555 20.7063C17.4535 21.2106 16.3179 21.3862 15.2104 21.2079C14.1028 21.0297 13.0797 20.5068 12.2865 19.7136C11.4932 18.9204 10.9703 17.8972 10.7921 16.7897C10.6139 15.6821 10.7894 14.5466 11.2938 13.5445C11.7981 12.5425 12.6056 11.725 13.6013 11.2084C14.5971 10.6917 15.7304 10.5022 16.84 10.6667C17.9719 10.8345 19.0198 11.362 19.8289 12.1711C20.6381 12.9802 21.1655 14.0281 21.3333 15.16Z" stroke="#04172A" stroke-width="2" stroke-linecap="round" stroke-linejoin="round"/>
<path d="M23.3333 8.66663H23.3466" stroke="#04172A" stroke-width="2" stroke-linecap="round" stroke-linejoin="round"/>
</svg>
