<svg width="41" height="41" viewBox="0 0 41 41" fill="none" xmlns="http://www.w3.org/2000/svg">
<circle cx="20.8675" cy="20.3894" r="20.0059" fill="#FB3F5C" fill-opacity="0.1"/>
<g clip-path="url(#clip0)">
<path d="M23.0258 19.9894C23.0258 20.9605 22.2385 21.7477 21.2675 21.7477C20.2964 21.7477 19.5092 20.9605 19.5092 19.9894C19.5092 19.0184 20.2964 18.2311 21.2675 18.2311C22.2385 18.2311 23.0258 19.0184 23.0258 19.9894Z" fill="#FB3F5C"/>
<path d="M24.2372 14.6753H18.2979C17.0051 14.6753 15.9535 15.7269 15.9535 17.0197V22.959C15.9535 24.2518 17.0051 25.3034 18.2979 25.3034H24.2372C25.53 25.3034 26.5816 24.2518 26.5816 22.959V17.0197C26.5816 15.7269 25.53 14.6753 24.2372 14.6753ZM21.2676 22.9199C19.6516 22.9199 18.337 21.6053 18.337 19.9894C18.337 18.3734 19.6516 17.0588 21.2676 17.0588C22.8835 17.0588 24.1981 18.3734 24.1981 19.9894C24.1981 21.6053 22.8835 22.9199 21.2676 22.9199ZM24.6279 17.2151C24.3042 17.2151 24.0418 16.9527 24.0418 16.629C24.0418 16.3053 24.3042 16.0429 24.6279 16.0429C24.9517 16.0429 25.214 16.3053 25.214 16.629C25.214 16.9527 24.9517 17.2151 24.6279 17.2151Z" fill="#FB3F5C"/>
<path d="M25.9955 9.98645H16.5396C13.6311 9.98645 11.2646 12.3529 11.2646 15.2614V24.7174C11.2646 27.6259 13.6311 29.9923 16.5396 29.9923H25.9955C28.9041 29.9923 31.2705 27.6259 31.2705 24.7174V15.2614C31.2705 12.3529 28.9041 9.98645 25.9955 9.98645ZM27.7539 22.959C27.7539 24.8981 26.1763 26.4757 24.2372 26.4757H18.298C16.3589 26.4757 14.7813 24.8981 14.7813 22.959V17.0198C14.7813 15.0807 16.3589 13.5031 18.298 13.5031H24.2372C26.1763 13.5031 27.7539 15.0807 27.7539 17.0198V22.959Z" fill="#FB3F5C"/>
</g>
<defs>
<clipPath id="clip0">
<rect width="20.0059" height="20.0059" fill="white" transform="translate(11.2646 9.98645)"/>
</clipPath>
</defs>
</svg>
