<svg width="41" height="41" viewBox="0 0 41 41" fill="none" xmlns="http://www.w3.org/2000/svg">
<circle cx="20.1084" cy="20.3894" r="20.0059" fill="#FB3F5C" fill-opacity="0.1"/>
<path d="M13.2224 14.2293C12.6622 14.2293 12.1981 14.0613 11.8299 13.7252C11.4778 13.3891 11.3018 12.9649 11.3018 12.4528C11.3018 11.9406 11.4778 11.5245 11.8299 11.2044C12.1981 10.8683 12.6622 10.7003 13.2224 10.7003C13.7825 10.7003 14.2387 10.8683 14.5908 11.2044C14.9589 11.5245 15.1429 11.9406 15.1429 12.4528C15.1429 12.9649 14.9589 13.3891 14.5908 13.7252C14.2387 14.0613 13.7825 14.2293 13.2224 14.2293ZM11.6859 27.9854V16.0778H14.7588V27.9854H11.6859ZM17.9662 27.9854V16.0778H20.679L20.9191 18.0944C21.2872 17.3902 21.8153 16.8301 22.5035 16.4139C23.2077 15.9978 24.032 15.7898 24.9763 15.7898C26.4487 15.7898 27.593 16.2539 28.4093 17.1822C29.2255 18.1104 29.6336 19.4708 29.6336 21.2634V27.9854H26.5607V21.5515C26.5607 20.5272 26.3527 19.7429 25.9365 19.1988C25.5204 18.6546 24.8722 18.3825 23.992 18.3825C23.1277 18.3825 22.4155 18.6866 21.8553 19.2948C21.3112 19.903 21.0391 20.7512 21.0391 21.8395V27.9854H17.9662Z" fill="#FB3F5C"/>
</svg>
