<svg width="41" height="41" viewBox="0 0 41 41" fill="none" xmlns="http://www.w3.org/2000/svg">
<circle cx="20.2469" cy="20.9652" r="20.0059" fill="#FB3F5C" fill-opacity="0.1"/>
<path d="M19.6772 11.1776C16.0824 11.1776 13.1578 14.1022 13.1578 17.6969C13.1578 22.2151 19.6836 29.9331 19.6836 29.9331C19.6836 29.9331 26.1965 21.9929 26.1965 17.6969C26.1965 14.1022 23.272 11.1776 19.6772 11.1776ZM21.6442 19.6058C21.1018 20.1481 20.3895 20.4193 19.6772 20.4193C18.9649 20.4193 18.2524 20.1481 17.7103 19.6058C16.6256 18.5213 16.6256 16.7565 17.7103 15.6719C18.2355 15.1464 18.9341 14.8571 19.6772 14.8571C20.4202 14.8571 21.1187 15.1466 21.6442 15.6719C22.7288 16.7565 22.7288 18.5213 21.6442 19.6058Z" fill="#FB3F5C"/>
</svg>
