<svg width="75" height="37" viewBox="0 0 75 37" fill="none" xmlns="http://www.w3.org/2000/svg">
<path opacity="0.997" d="M27.3662 9.67416V3H72V27.9212H57.1648" stroke="#FB3F5C" stroke-width="5" stroke-linecap="round" stroke-linejoin="round"/>
<path d="M0 11.5299V13.3517H1.49713V20.0925H3.76053V13.3517H5.57845V11.5299H3.76053V11.1821C3.76053 10.8012 3.86748 10.4865 4.09918 10.2546C4.31306 10.0227 4.65168 9.90679 5.07941 9.90679H5.57845V8.08496H4.61607C3.63581 8.08496 2.86947 8.34996 2.31696 8.87995C1.76446 9.40994 1.49713 10.1221 1.49713 11.033V11.5299H0Z" fill="white"/>
<path d="M12.9655 16.5815C12.9655 17.1612 12.7872 17.6249 12.4486 17.9562C12.1099 18.2874 11.6822 18.453 11.1475 18.453C10.5772 18.453 10.1316 18.2874 9.82866 17.9396C9.52567 17.5918 9.38317 17.1446 9.38317 16.5815V11.53H7.11963V16.8299C7.11963 17.8733 7.40474 18.718 7.99288 19.3639C8.56321 20.0264 9.4009 20.3411 10.4702 20.3411C11.0049 20.3411 11.504 20.2417 11.9495 20.0264C12.3773 19.8111 12.7516 19.4964 13.0546 19.0989V20.0927H15.2289V11.53H12.9655V16.5815Z" fill="white"/>
<path d="M19.8625 15.0577C19.8625 14.478 20.0408 14.0143 20.4151 13.683C20.7716 13.3518 21.2349 13.1696 21.7696 13.1696C22.3577 13.1696 22.8033 13.3518 23.0884 13.6996C23.3736 14.0474 23.5341 14.5111 23.5341 15.0908V20.0926H25.7975V14.7761C25.7975 13.7327 25.4944 12.888 24.9241 12.2421C24.3359 11.6127 23.5518 11.2815 22.5537 11.2815C21.3596 11.2815 20.4329 11.7121 19.7734 12.5402V11.5299H17.5991V20.0926H19.8625V15.0577Z" fill="white"/>
<path d="M31.6233 20.341C32.2471 20.341 32.7996 20.225 33.2808 19.9766C33.7442 19.7447 34.1364 19.3969 34.4572 18.9663V20.0925H36.6315V8.08496H34.3859V12.5733C34.0651 12.1758 33.673 11.8611 33.2096 11.6293C32.7462 11.3974 32.2115 11.2815 31.6233 11.2815C30.8213 11.2815 30.1084 11.4802 29.5025 11.8611C28.8965 12.2421 28.4153 12.772 28.0589 13.4511C27.7024 14.1301 27.542 14.9086 27.542 15.8029C27.542 16.6973 27.7024 17.4757 28.0589 18.1548C28.4153 18.8504 28.8965 19.3804 29.5025 19.7613C30.1084 20.1588 30.8213 20.341 31.6233 20.341V20.341ZM32.1581 18.4694C31.4808 18.4694 30.9104 18.2376 30.4827 17.7407C30.055 17.2604 29.8411 16.6145 29.8411 15.8029C29.8411 14.9914 30.055 14.3455 30.4827 13.8652C30.9104 13.4014 31.4808 13.153 32.1581 13.153C32.8353 13.153 33.4056 13.4014 33.8333 13.8817C34.2611 14.362 34.4927 15.0079 34.4927 15.8029C34.4927 16.6145 34.2611 17.2604 33.8333 17.7407C33.4056 18.2376 32.8353 18.4694 32.1581 18.4694Z" fill="white"/>
<path d="M42.395 20.1206H44.6584V15.0029C44.6584 14.4398 44.8011 14.0092 45.1219 13.678C45.4249 13.3633 45.8169 13.1977 46.2981 13.1977C46.7793 13.1977 47.1536 13.3633 47.4209 13.678C47.6704 14.0092 47.8131 14.4398 47.8131 15.0029V20.1206H50.0765V15.0029C50.0765 14.4398 50.2191 14.0092 50.54 13.678C50.8608 13.3633 51.2528 13.1977 51.734 13.1977C52.2152 13.1977 52.5895 13.3633 52.8568 13.678C53.1063 14.0092 53.249 14.4398 53.249 15.0029V20.1206H55.5124V14.7379C55.5124 13.678 55.2272 12.8499 54.6747 12.2371C54.1044 11.6243 53.3559 11.3096 52.4291 11.3096C51.8588 11.3096 51.3062 11.4421 50.8072 11.6739C50.3081 11.9224 49.8805 12.2702 49.5597 12.7174C49.2924 12.2867 48.9537 11.9389 48.5259 11.6905C48.0982 11.4421 47.5992 11.3096 47.0645 11.3096C46.5299 11.3096 46.0664 11.4255 45.6387 11.6243C45.2109 11.823 44.8545 12.1211 44.5693 12.4855V11.558H42.395V20.1206Z" fill="#FB3F5C"/>
<path d="M58.4851 23.516H60.909L65.935 11.5581H63.4932L61.2477 17.6696L58.9663 11.5581H56.3821L60.0001 20.1207L58.4851 23.516Z" fill="#FB3F5C"/>
<path d="M1.47314 33.6047H3.73655V21.5972H1.47314V33.6047Z" fill="white"/>
<path d="M8.66919 33.8532C9.20387 33.8532 9.72086 33.7538 10.2199 33.5385C10.7189 33.3398 11.1288 33.0085 11.4318 32.5448V33.6048H13.5169V28.2386C13.5169 27.0627 13.1605 26.2015 12.4833 25.6384C11.7882 25.0753 10.8435 24.7937 9.64942 24.7937C8.56226 24.7937 7.68906 25.0421 7.01181 25.5224C6.33453 26.0193 5.90677 26.6155 5.7642 27.3443H7.93848C8.00976 27.129 8.18806 26.9302 8.47323 26.7646C8.75836 26.599 9.11478 26.5162 9.57815 26.5162C10.095 26.5162 10.505 26.6487 10.8258 26.8805C11.1287 27.1124 11.2892 27.4933 11.2892 28.0233V28.338H9.41775C8.17017 28.338 7.20773 28.5864 6.53048 29.0833C5.8354 29.5802 5.49683 30.2758 5.49683 31.1536C5.49683 31.9817 5.78204 32.6276 6.35237 33.1245C6.92267 33.6213 7.70677 33.8532 8.66919 33.8532V33.8532ZM9.2395 32.1639C8.77613 32.1639 8.41974 32.0811 8.13458 31.8823C7.84942 31.6836 7.70681 31.402 7.70681 31.0211C7.70681 30.6567 7.84945 30.3586 8.17029 30.1599C8.49109 29.9611 8.93658 29.8452 9.52473 29.8452H11.2892V30.3917C11.2892 30.7892 11.1823 31.1039 10.9684 31.3689C10.7546 31.6339 10.505 31.8326 10.1842 31.9651C9.86336 32.0976 9.56031 32.1639 9.2395 32.1639V32.1639Z" fill="white"/>
<path d="M15.8147 37H18.0602V32.5614C18.3811 32.9754 18.7732 33.2901 19.2366 33.522C19.7 33.7538 20.2169 33.8532 20.8228 33.8532C21.607 33.8532 22.3199 33.671 22.9258 33.2901C23.5318 32.9092 24.0131 32.3792 24.3695 31.6836C24.726 31.0045 24.9042 30.2261 24.9042 29.3317C24.9042 28.4374 24.726 27.659 24.3695 26.9799C24.0131 26.3009 23.5318 25.7709 22.9258 25.3734C22.3199 24.9925 21.607 24.7937 20.8228 24.7937C20.1812 24.7937 19.6287 24.9262 19.1653 25.1581C18.6841 25.4065 18.292 25.7378 17.989 26.1684V25.0421H15.8147V37ZM20.2881 31.9817C19.593 31.9817 19.0227 31.7498 18.595 31.2695C18.1672 30.7892 17.9534 30.1433 17.9534 29.3317C17.9534 28.5368 18.1672 27.8908 18.595 27.394C19.0227 26.9137 19.593 26.6652 20.2881 26.6652C20.9654 26.6652 21.5178 26.9137 21.9456 27.394C22.3733 27.8743 22.605 28.5202 22.605 29.3317C22.605 30.1433 22.3733 30.7892 21.9456 31.2695C21.5178 31.7498 20.9654 31.9817 20.2881 31.9817Z" fill="white"/>
<path d="M30.2392 33.6709H31.4155V31.8491H30.7561C30.3818 31.8491 30.0966 31.7497 29.9005 31.551C29.6867 31.3522 29.5976 31.0707 29.5976 30.6732V26.8639H31.4155V25.0421H29.5976V22.094C28.8669 22.2927 28.1182 22.4087 27.334 22.4418V25.0421H25.8369V26.8639H27.334V30.9051C27.334 31.816 27.5836 32.5116 28.0826 32.9753C28.5816 33.4391 29.3124 33.6709 30.2392 33.6709V33.6709Z" fill="white"/>
<path d="M37.266 33.8532C38.1571 33.8532 38.9591 33.671 39.6542 33.2735C40.3493 32.8926 40.9018 32.3626 41.2939 31.667C41.686 30.988 41.882 30.2095 41.882 29.3152C41.882 28.4208 41.686 27.6424 41.2939 26.9633C40.9018 26.2843 40.3493 25.7543 39.6542 25.3734C38.9591 24.9925 38.1571 24.7937 37.266 24.7937C36.357 24.7937 35.555 24.9925 34.8599 25.3734C34.1648 25.7543 33.6302 26.2843 33.2381 26.9633C32.846 27.6424 32.6499 28.4208 32.6499 29.3152C32.6499 30.2095 32.846 30.988 33.2381 31.667C33.6302 32.3626 34.1648 32.8926 34.8599 33.2735C35.555 33.671 36.357 33.8532 37.266 33.8532ZM37.266 31.9817C36.5709 31.9817 36.0185 31.7498 35.5907 31.2529C35.163 30.7726 34.949 30.1267 34.949 29.3152C34.949 28.5036 35.163 27.8577 35.5907 27.3774C36.0185 26.9137 36.5709 26.6652 37.266 26.6652C37.9432 26.6652 38.5136 26.9137 38.9413 27.3774C39.3691 27.8577 39.5829 28.5036 39.5829 29.3152C39.5829 30.1267 39.3691 30.7726 38.9413 31.2529C38.5136 31.7498 37.9432 31.9817 37.266 31.9817Z" fill="white"/>
<path d="M43.6973 37H45.943V32.5614C46.2638 32.9754 46.6559 33.2901 47.1193 33.522C47.5827 33.7538 48.0994 33.8532 48.7054 33.8532C49.4896 33.8532 50.2026 33.671 50.8085 33.2901C51.4145 32.9092 51.8956 32.3792 52.2521 31.6836C52.6086 31.0045 52.7869 30.2261 52.7869 29.3317C52.7869 28.4374 52.6086 27.659 52.2521 26.9799C51.8956 26.3009 51.4145 25.7709 50.8085 25.3734C50.2026 24.9925 49.4896 24.7937 48.7054 24.7937C48.0638 24.7937 47.5113 24.9262 47.0479 25.1581C46.5667 25.4065 46.1747 25.7378 45.8717 26.1684V25.0421H43.6973V37ZM48.1708 31.9817C47.4757 31.9817 46.9053 31.7498 46.4776 31.2695C46.0498 30.7892 45.836 30.1433 45.836 29.3317C45.836 28.5368 46.0498 27.8908 46.4776 27.394C46.9053 26.9137 47.4757 26.6652 48.1708 26.6652C48.848 26.6652 49.4006 26.9137 49.8283 27.394C50.256 27.8743 50.4878 28.5202 50.4878 29.3317C50.4878 30.1433 50.256 30.7892 49.8283 31.2695C49.4006 31.7498 48.848 31.9817 48.1708 31.9817Z" fill="white"/>
</svg>
