<svg width="493" height="255" viewBox="0 0 493 255" fill="none" xmlns="http://www.w3.org/2000/svg">
<path opacity="0.997" fill-rule="evenodd" clip-rule="evenodd" d="M183.812 0.894531C181.354 0.894805 178.996 1.87328 177.257 3.61475C175.519 5.35623 174.542 7.71809 174.542 10.1809V58.0754C174.542 60.5382 175.519 62.9003 177.257 64.6418C178.996 66.3833 181.354 67.3617 183.812 67.3617C186.271 67.3617 188.629 66.3833 190.367 64.6418C192.106 62.9003 193.082 60.5382 193.082 58.0754V19.4673H471.685V179.744H382.193C379.734 179.744 377.376 180.722 375.638 182.464C373.899 184.205 372.923 186.567 372.923 189.03C372.923 191.493 373.899 193.855 375.638 195.597C377.376 197.338 379.734 198.317 382.193 198.317H480.955C483.414 198.316 485.771 197.338 487.51 195.596C489.248 193.855 490.225 191.493 490.225 189.03V10.1809C490.225 7.71809 489.248 5.35623 487.51 3.61475C485.771 1.87328 483.414 0.894808 480.955 0.894531H183.812Z" fill="#FB3F5C"/>
<path d="M1.62402 71.3946V84.4691H11.5908V132.845H26.6596V84.4691H38.7622V71.3946H26.6596V68.8986C26.6596 66.1648 27.3716 63.9065 28.914 62.2424C30.3379 60.5784 32.5923 59.7464 35.4399 59.7464H38.7622V46.6719H32.3549C25.8291 46.6719 20.727 48.5736 17.0488 52.3771C13.3706 56.1806 11.5908 61.2916 11.5908 67.8288V71.3946H1.62402Z" fill="#04172A"/>
<path d="M87.9404 107.649C87.9404 111.809 86.7539 115.137 84.4995 117.514C82.2451 119.891 79.3974 121.08 75.8379 121.08C72.041 121.08 69.0747 119.891 67.0576 117.395C65.0405 114.899 64.0913 111.69 64.0913 107.649V71.3965H49.0225V109.431C49.0225 116.92 50.9209 122.981 54.8364 127.617C58.6333 132.371 64.2099 134.63 71.3291 134.63C74.8886 134.63 78.2109 133.917 81.1772 132.371C84.0249 130.826 86.5166 128.568 88.5337 125.715V132.847H103.009V71.3965H87.9404V107.649Z" fill="#04172A"/>
<path d="M133.857 96.7133C133.857 92.5532 135.043 89.2251 137.535 86.8479C139.908 84.4707 142.993 83.1633 146.553 83.1633C150.468 83.1633 153.435 84.4707 155.333 86.9668C157.231 89.4628 158.299 92.7909 158.299 96.951V132.847H173.368V94.6926C173.368 87.2045 171.351 81.1426 167.554 76.5071C163.639 71.9905 158.418 69.6133 151.773 69.6133C143.824 69.6133 137.654 72.7036 133.264 78.6466V71.3962H118.788V132.847H133.857V96.7133Z" fill="#04172A"/>
<path d="M212.154 134.628C216.307 134.628 219.985 133.796 223.188 132.013C226.273 130.349 228.884 127.853 231.019 124.762V132.845H245.495V46.6719H230.545V78.8828C228.409 76.0301 225.799 73.7718 222.714 72.1078C219.629 70.4438 216.069 69.6117 212.154 69.6117C206.814 69.6117 202.068 71.038 198.034 73.7718C194 76.5056 190.796 80.3091 188.423 85.1823C186.05 90.0556 184.982 95.6419 184.982 102.06C184.982 108.479 186.05 114.065 188.423 118.938C190.796 123.93 194 127.734 198.034 130.468C202.068 133.32 206.814 134.628 212.154 134.628ZM215.713 121.197C211.205 121.197 207.408 119.533 204.56 115.967C201.712 112.52 200.289 107.884 200.289 102.06C200.289 96.2362 201.712 91.6007 204.56 88.1538C207.408 84.8257 211.205 83.0428 215.713 83.0428C220.222 83.0428 224.019 84.8257 226.867 88.2727C229.714 91.7196 231.257 96.3551 231.257 102.06C231.257 107.884 229.714 112.52 226.867 115.967C224.019 119.533 220.222 121.197 215.713 121.197Z" fill="#04172A"/>
<path d="M283.864 133.048H298.933V96.3201C298.933 92.2788 299.882 89.1885 302.018 86.8113C304.035 84.553 306.646 83.3644 309.849 83.3644C313.053 83.3644 315.544 84.553 317.324 86.8113C318.985 89.1885 319.935 92.2788 319.935 96.3201V133.048H335.003V96.3201C335.003 92.2788 335.953 89.1885 338.088 86.8113C340.224 84.553 342.834 83.3644 346.038 83.3644C349.242 83.3644 351.733 84.553 353.513 86.8113C355.174 89.1885 356.123 92.2788 356.123 96.3201V133.048H371.192V94.4183C371.192 86.8113 369.294 80.8684 365.616 76.4706C361.819 72.0728 356.835 69.8145 350.665 69.8145C346.869 69.8145 343.19 70.7653 339.868 72.4294C336.546 74.2122 333.698 76.7083 331.562 79.9175C329.783 76.8271 327.528 74.3311 324.681 72.5482C321.833 70.7653 318.511 69.8145 314.951 69.8145C311.392 69.8145 308.307 70.6465 305.459 72.0728C302.611 73.4991 300.238 75.6386 298.34 78.2535V71.5973H283.864V133.048Z" fill="#FB3F5C"/>
<path d="M390.982 157.414H407.119L440.579 71.5977H424.324L409.373 115.457L394.186 71.5977H376.981L401.068 133.048L390.982 157.414Z" fill="#FB3F5C"/>
<path d="M11.4297 229.818H26.4985V143.645H11.4297V229.818Z" fill="#04172A"/>
<path d="M59.3379 231.602C62.8974 231.602 66.3384 230.889 69.6606 229.344C72.9829 227.917 75.7119 225.54 77.729 222.212V229.819H91.6113V191.309C91.6113 182.87 89.2382 176.689 84.7294 172.648C80.102 168.607 73.8134 166.586 65.8637 166.586C58.626 166.586 52.812 168.369 48.3032 171.816C43.7944 175.382 40.9468 179.66 39.9976 184.89H54.4731C54.9477 183.345 56.1343 181.919 58.0327 180.73C59.9311 179.542 62.3042 178.947 65.3891 178.947C68.83 178.947 71.5591 179.898 73.6948 181.562C75.7119 183.226 76.7798 185.96 76.7798 189.764V192.022H64.3213C56.0156 192.022 49.6084 193.805 45.0996 197.371C40.4722 200.936 38.2178 205.928 38.2178 212.228C38.2178 218.171 40.1162 222.806 43.9131 226.372C47.71 229.938 52.9306 231.602 59.3379 231.602ZM63.1347 219.478C60.0498 219.478 57.6767 218.884 55.7783 217.458C53.8799 216.031 52.9306 214.011 52.9306 211.277C52.9306 208.662 53.8799 206.523 56.0156 205.096C58.1513 203.67 61.1177 202.838 65.0332 202.838H76.7798V206.76C76.7798 209.613 76.0678 211.871 74.644 213.773C73.2202 215.675 71.559 217.101 69.4233 218.052C67.2876 219.003 65.2705 219.478 63.1347 219.478Z" fill="#04172A"/>
<path d="M106.907 254.185H121.857V222.331C123.993 225.302 126.604 227.561 129.688 229.225C132.773 230.889 136.214 231.602 140.248 231.602C145.469 231.602 150.215 230.295 154.249 227.561C158.284 224.827 161.487 221.024 163.86 216.031C166.233 211.158 167.42 205.572 167.42 199.153C167.42 192.735 166.233 187.149 163.86 182.275C161.487 177.402 158.284 173.599 154.249 170.746C150.215 168.012 145.469 166.586 140.248 166.586C135.977 166.586 132.299 167.537 129.214 169.201C126.01 170.984 123.4 173.361 121.383 176.451V168.369H106.907V254.185ZM136.689 218.171C132.061 218.171 128.265 216.507 125.417 213.06C122.569 209.613 121.145 204.977 121.145 199.153C121.145 193.448 122.569 188.813 125.417 185.247C128.265 181.8 132.061 180.017 136.689 180.017C141.198 180.017 144.876 181.8 147.724 185.247C150.571 188.694 152.114 193.329 152.114 199.153C152.114 204.977 150.571 209.613 147.724 213.06C144.876 216.507 141.198 218.171 136.689 218.171Z" fill="#04172A"/>
<path d="M202.937 230.296H210.768V217.221H206.378C203.886 217.221 201.988 216.508 200.683 215.082C199.259 213.655 198.666 211.635 198.666 208.782V181.444H210.768V168.37H198.666V147.213C193.801 148.639 188.817 149.471 183.597 149.709V168.37H173.63V181.444H183.597V210.446C183.597 216.983 185.258 221.975 188.58 225.304C191.902 228.632 196.767 230.296 202.937 230.296Z" fill="#04172A"/>
<path d="M249.717 231.602C255.65 231.602 260.989 230.295 265.617 227.442C270.244 224.708 273.922 220.905 276.533 215.913C279.143 211.039 280.448 205.453 280.448 199.035C280.448 192.616 279.143 187.03 276.533 182.157C273.922 177.283 270.244 173.48 265.617 170.746C260.989 168.012 255.65 166.586 249.717 166.586C243.666 166.586 238.327 168.012 233.699 170.746C229.072 173.48 225.512 177.283 222.902 182.157C220.292 187.03 218.986 192.616 218.986 199.035C218.986 205.453 220.292 211.039 222.902 215.913C225.512 220.905 229.072 224.708 233.699 227.442C238.327 230.295 243.666 231.602 249.717 231.602ZM249.717 218.171C245.09 218.171 241.412 216.507 238.564 212.941C235.716 209.494 234.292 204.859 234.292 199.035C234.292 193.21 235.716 188.575 238.564 185.128C241.412 181.8 245.09 180.017 249.717 180.017C254.226 180.017 258.023 181.8 260.871 185.128C263.718 188.575 265.142 193.21 265.142 199.035C265.142 204.859 263.718 209.494 260.871 212.941C258.023 216.507 254.226 218.171 249.717 218.171Z" fill="#04172A"/>
<path d="M292.534 254.185H307.484V222.331C309.62 225.302 312.23 227.561 315.315 229.225C318.4 230.889 321.841 231.602 325.875 231.602C331.096 231.602 335.842 230.295 339.876 227.561C343.911 224.827 347.114 221.024 349.487 216.031C351.86 211.158 353.047 205.572 353.047 199.153C353.047 192.735 351.86 187.149 349.487 182.275C347.114 177.402 343.911 173.599 339.876 170.746C335.842 168.012 331.096 166.586 325.875 166.586C321.604 166.586 317.926 167.537 314.841 169.201C311.637 170.984 309.027 173.361 307.01 176.451V168.369H292.534V254.185ZM322.316 218.171C317.688 218.171 313.892 216.507 311.044 213.06C308.196 209.613 306.772 204.977 306.772 199.153C306.772 193.448 308.196 188.813 311.044 185.247C313.892 181.8 317.688 180.017 322.316 180.017C326.825 180.017 330.503 181.8 333.351 185.247C336.198 188.694 337.741 193.329 337.741 199.153C337.741 204.977 336.198 209.613 333.351 213.06C330.503 216.507 326.825 218.171 322.316 218.171Z" fill="#04172A"/>
</svg>
