<svg width="28" height="36" viewBox="0 0 28 36" fill="none" xmlns="http://www.w3.org/2000/svg">
<path d="M10.5762 21.7197H15.3645C15.7455 21.7197 16.1108 21.8711 16.3802 22.1405C16.6496 22.4099 16.801 22.7752 16.801 23.1562C16.801 23.5372 16.6496 23.9026 16.3802 24.172C16.1108 24.4414 15.7455 24.5927 15.3645 24.5927H12.4915" stroke="#FB3F5C" stroke-width="2" stroke-linecap="round" stroke-linejoin="round"/>
<path d="M11.2168 11.5564H16.609" stroke="#FB3F5C" stroke-width="2" stroke-linecap="round" stroke-linejoin="round"/>
<path d="M12.0129 2.56545L20.153 4.12596C19.5768 5.87951 18.3864 7.36586 16.8012 8.31141H11.0553C9.22709 6.44048 7.90835 4.13268 7.22461 1.60779" stroke="#FB3F5C" stroke-width="2" stroke-linecap="round" stroke-linejoin="round"/>
<path d="M24.6841 34.1693C26.1235 32.099 26.8833 29.6322 26.8583 27.1108C26.8583 23.6819 25.4961 20.3933 23.0715 17.9687C20.6468 15.544 17.3583 14.1819 13.9293 14.1819C10.5003 14.1819 7.2118 15.544 4.78714 17.9687C2.36249 20.3933 1.00034 23.6819 1.00034 27.1108C0.981571 29.6313 1.74081 32.0962 3.17449 34.1693H24.6841Z" stroke="#FB3F5C" stroke-width="2" stroke-linecap="round" stroke-linejoin="round"/>
</svg>
