<svg width="22" height="26" viewBox="0 0 22 26" fill="none" xmlns="http://www.w3.org/2000/svg">
<path d="M20.8617 20.691C20.7852 20.6414 20.21 20.2384 19.6341 19.0194C18.5763 16.7809 18.3543 13.6275 18.3543 11.3763C18.3543 11.3665 18.3541 11.3568 18.3538 11.347C18.3422 8.3718 16.5607 5.80704 14.0113 4.65629V2.89636C14.0113 1.29929 12.7141 0 11.1197 0H10.88C9.28561 0 7.98846 1.29929 7.98846 2.89636V4.65618C5.4305 5.81064 3.64539 8.3885 3.64539 11.3763C3.64539 13.6275 3.42338 16.7808 2.36565 19.0194C1.78974 20.2384 1.21454 20.6413 1.13807 20.691C0.816012 20.84 0.657219 21.1843 0.731309 21.5332C0.80611 21.8856 1.13548 22.1285 1.49516 22.1285H7.07841C7.10959 24.2685 8.85616 26 10.9999 26C13.1436 26 14.8902 24.2685 14.9214 22.1285H20.5046C20.8642 22.1285 21.1937 21.8856 21.2685 21.5332C21.3425 21.1843 21.1837 20.84 20.8617 20.691ZM9.51195 2.89636C9.51195 2.14068 10.1257 1.52593 10.8801 1.52593H11.1197C11.8741 1.52593 12.4879 2.14068 12.4879 2.89636V4.16168C12.0071 4.0623 11.5094 4.00999 10.9997 4.00999C10.4901 4.00999 9.99259 4.06225 9.512 4.16152V2.89636H9.51195ZM10.9999 24.4741C9.69618 24.4741 8.63277 23.4271 8.60184 22.1286H13.3979C13.367 23.4271 12.3036 24.4741 10.9999 24.4741ZM14.0671 20.6026C14.0669 20.6026 3.23112 20.6026 3.23112 20.6026C3.36289 20.3972 3.49701 20.1647 3.63031 19.9019C4.65121 17.8888 5.16888 15.0203 5.16888 11.3763C5.16888 8.15587 7.78457 5.53592 10.9996 5.53592C14.2147 5.53592 16.8304 8.15588 16.8304 11.3788C16.8304 11.3882 16.8305 11.3975 16.8309 11.4069C16.8338 15.0363 17.3514 17.8944 18.3695 19.9019C18.5028 20.1647 18.6369 20.3972 18.7687 20.6026H14.0671Z" fill="#04172A"/>
</svg>
