<svg width="230" height="230" viewBox="0 0 230 230" fill="none" xmlns="http://www.w3.org/2000/svg">
<path d="M90.85 157V139.5H96.6C97.9667 139.5 99.0917 139.725 99.975 140.175C100.858 140.625 101.508 141.233 101.925 142C102.358 142.767 102.575 143.633 102.575 144.6C102.575 145.55 102.367 146.408 101.95 147.175C101.533 147.942 100.883 148.558 100 149.025C99.1167 149.475 97.9833 149.7 96.6 149.7H92.95V157H90.85ZM92.95 147.925H96.55C97.95 147.925 98.9417 147.633 99.525 147.05C100.125 146.45 100.425 145.633 100.425 144.6C100.425 143.55 100.125 142.733 99.525 142.15C98.9417 141.55 97.95 141.25 96.55 141.25H92.95V147.925ZM102.03 157L108.48 139.5H110.705L117.13 157H114.905L113.305 152.5H105.855L104.23 157H102.03ZM106.48 150.8H112.68L109.58 142.15L106.48 150.8ZM119.732 157V139.5H121.832V157H119.732ZM125.542 157V139.5H130.917C134.001 139.5 136.267 140.283 137.717 141.85C139.184 143.417 139.917 145.567 139.917 148.3C139.917 150.983 139.184 153.108 137.717 154.675C136.267 156.225 134.001 157 130.917 157H125.542ZM127.642 155.25H130.867C132.567 155.25 133.917 154.975 134.917 154.425C135.934 153.858 136.659 153.058 137.092 152.025C137.526 150.975 137.742 149.733 137.742 148.3C137.742 146.833 137.526 145.575 137.092 144.525C136.659 143.475 135.934 142.667 134.917 142.1C133.917 141.533 132.567 141.25 130.867 141.25H127.642V155.25Z" fill="#04172A"/>
<path d="M77.45 121V113.3H58.145V108.68L76.515 82.5H83.225V108.24H88.615V113.3H83.225V121H77.45ZM64.47 108.24H77.78V88.935L64.47 108.24ZM109.573 121.66C106.089 121.66 103.083 120.835 100.553 119.185C98.0592 117.498 96.1342 115.17 94.7776 112.2C93.4576 109.193 92.7976 105.71 92.7976 101.75C92.7976 97.79 93.4576 94.325 94.7776 91.355C96.1342 88.3483 98.0592 86.02 100.553 84.37C103.083 82.6833 106.089 81.84 109.573 81.84C113.056 81.84 116.044 82.6833 118.538 84.37C121.031 86.02 122.938 88.3483 124.258 91.355C125.614 94.325 126.293 97.79 126.293 101.75C126.293 105.71 125.614 109.193 124.258 112.2C122.938 115.17 121.031 117.498 118.538 119.185C116.044 120.835 113.056 121.66 109.573 121.66ZM109.573 116.435C111.663 116.435 113.514 115.848 115.128 114.675C116.778 113.502 118.061 111.815 118.978 109.615C119.894 107.415 120.353 104.793 120.353 101.75C120.353 98.7067 119.894 96.085 118.978 93.885C118.061 91.685 116.778 89.9983 115.128 88.825C113.514 87.6517 111.663 87.065 109.573 87.065C107.446 87.065 105.576 87.6517 103.963 88.825C102.349 89.9983 101.084 91.685 100.168 93.885C99.2509 96.085 98.7926 98.7067 98.7926 101.75C98.7926 104.793 99.2509 107.415 100.168 109.615C101.084 111.815 102.349 113.502 103.963 114.675C105.576 115.848 107.446 116.435 109.573 116.435ZM140.216 100.87C138.492 100.87 136.934 100.485 135.541 99.715C134.184 98.945 133.102 97.8633 132.296 96.47C131.489 95.04 131.086 93.335 131.086 91.355C131.086 89.4117 131.489 87.7433 132.296 86.35C133.102 84.92 134.202 83.82 135.596 83.05C136.989 82.28 138.547 81.895 140.271 81.895C141.957 81.895 143.479 82.28 144.836 83.05C146.229 83.82 147.329 84.92 148.136 86.35C148.942 87.7433 149.346 89.4117 149.346 91.355C149.346 93.335 148.942 95.04 148.136 96.47C147.329 97.8633 146.229 98.945 144.836 99.715C143.479 100.485 141.939 100.87 140.216 100.87ZM137.466 121L159.521 82.5H165.241L143.241 121H137.466ZM140.216 96.69C141.389 96.69 142.397 96.25 143.241 95.37C144.121 94.4533 144.561 93.115 144.561 91.355C144.561 89.595 144.139 88.275 143.296 87.395C142.452 86.4783 141.426 86.02 140.216 86.02C139.042 86.02 138.016 86.4783 137.136 87.395C136.256 88.275 135.816 89.595 135.816 91.355C135.816 93.115 136.237 94.4533 137.081 95.37C137.961 96.25 139.006 96.69 140.216 96.69ZM162.821 121.66C161.097 121.66 159.539 121.275 158.146 120.505C156.789 119.735 155.707 118.653 154.901 117.26C154.094 115.83 153.691 114.125 153.691 112.145C153.691 110.202 154.094 108.515 154.901 107.085C155.707 105.655 156.807 104.555 158.201 103.785C159.594 103.015 161.152 102.63 162.876 102.63C164.562 102.63 166.084 103.015 167.441 103.785C168.834 104.555 169.934 105.655 170.741 107.085C171.547 108.515 171.951 110.202 171.951 112.145C171.951 114.125 171.547 115.83 170.741 117.26C169.934 118.653 168.834 119.735 167.441 120.505C166.084 121.275 164.544 121.66 162.821 121.66ZM162.821 117.425C163.994 117.425 165.002 116.985 165.846 116.105C166.726 115.225 167.166 113.905 167.166 112.145C167.166 110.385 166.744 109.065 165.901 108.185C165.057 107.268 164.031 106.81 162.821 106.81C161.647 106.81 160.621 107.268 159.741 108.185C158.861 109.065 158.421 110.385 158.421 112.145C158.421 113.905 158.842 115.225 159.686 116.105C160.566 116.985 161.611 117.425 162.821 117.425Z" fill="#04172A"/>
<path d="M115 10C128.789 10 142.443 12.7159 155.182 17.9927C167.921 23.2694 179.496 31.0036 189.246 40.7538C198.996 50.5039 206.731 62.0791 212.007 74.8183C217.284 87.5574 220 101.211 220 115C220 128.789 217.284 142.443 212.007 155.182C206.731 167.921 198.996 179.496 189.246 189.246C179.496 198.996 167.921 206.731 155.182 212.007C142.443 217.284 128.789 220 115 220C101.211 220 87.5574 217.284 74.8182 212.007C62.079 206.731 50.5039 198.996 40.7538 189.246C31.0036 179.496 23.2694 167.921 17.9926 155.182C12.7159 142.443 9.99999 128.789 10 115C10 101.211 12.7159 87.5574 17.9927 74.8182C23.2694 62.079 31.0037 50.5039 40.7538 40.7537C50.504 31.0036 62.0791 23.2694 74.8183 17.9926C87.5575 12.7159 101.211 9.99999 115 10L115 10Z" stroke="#E1E1E1" stroke-width="10" stroke-dasharray="2 2"/>
<path d="M115 10C137.174 10 158.778 17.0198 176.717 30.0532C194.656 43.0867 208.009 61.4647 214.861 82.5532C221.713 103.642 221.713 126.358 214.861 147.447C208.009 168.535 194.656 186.913 176.717 199.947" stroke="#FB3F5C" stroke-width="20"/>
</svg>
