<svg width="14" height="13" viewBox="0 0 14 13" fill="none" xmlns="http://www.w3.org/2000/svg">
<path d="M9.91602 1.625C10.0692 1.48274 10.2511 1.36988 10.4513 1.29289C10.6515 1.2159 10.866 1.17627 11.0827 1.17627C11.2994 1.17627 11.5139 1.2159 11.7141 1.29289C11.9143 1.36988 12.0961 1.48274 12.2493 1.625C12.4026 1.76727 12.5241 1.93616 12.607 2.12204C12.6899 2.30792 12.7326 2.50714 12.7326 2.70833C12.7326 2.90953 12.6899 3.10875 12.607 3.29463C12.5241 3.48051 12.4026 3.6494 12.2493 3.79167L4.37435 11.1042L1.16602 11.9167L2.04102 8.9375L9.91602 1.625Z" stroke="#FB3F5C" stroke-width="2" stroke-linecap="round" stroke-linejoin="round"/>
</svg>
