<svg width="25" height="25" viewBox="0 0 25 25" fill="none" xmlns="http://www.w3.org/2000/svg">
<circle cx="12.5" cy="12.5" r="12.5" fill="white"/>
<path d="M17.6019 14.1859C17.3798 15.3953 16.7588 16.4954 15.8381 17.3105C14.9175 18.1255 13.7502 18.6086 12.5228 18.6825C11.2955 18.7563 10.0787 18.4168 9.06691 17.718C8.05513 17.0193 7.30668 16.0016 6.9411 14.8276C6.57551 13.6536 6.61388 12.391 7.05008 11.2413C7.48628 10.0917 8.29514 9.12134 9.34749 8.48531C10.3998 7.84929 11.635 7.58425 12.8556 7.73252C14.0762 7.8808 15.212 8.43383 16.0815 9.3033" stroke="#FB3F5C" stroke-width="2"/>
<path d="M12.3145 10.8584L17.3611 9.86042L15.7021 4.99091" stroke="#FB3F5C" stroke-width="2" stroke-linejoin="round"/>
</svg>
