<svg width="15" height="15" viewBox="0 0 15 15" fill="none" xmlns="http://www.w3.org/2000/svg">
<path d="M11.25 5C12.2855 5 13.125 4.16053 13.125 3.125C13.125 2.08947 12.2855 1.25 11.25 1.25C10.2145 1.25 9.375 2.08947 9.375 3.125C9.375 4.16053 10.2145 5 11.25 5Z" stroke="#FB3F5C" stroke-width="2" stroke-linecap="round" stroke-linejoin="round"/>
<path d="M3.75 9.375C4.78553 9.375 5.625 8.53553 5.625 7.5C5.625 6.46447 4.78553 5.625 3.75 5.625C2.71447 5.625 1.875 6.46447 1.875 7.5C1.875 8.53553 2.71447 9.375 3.75 9.375Z" stroke="#FB3F5C" stroke-width="2" stroke-linecap="round" stroke-linejoin="round"/>
<path d="M11.25 13.75C12.2855 13.75 13.125 12.9105 13.125 11.875C13.125 10.8395 12.2855 10 11.25 10C10.2145 10 9.375 10.8395 9.375 11.875C9.375 12.9105 10.2145 13.75 11.25 13.75Z" stroke="#FB3F5C" stroke-width="2" stroke-linecap="round" stroke-linejoin="round"/>
<path d="M5.36914 8.44373L9.63789 10.9312" stroke="#FB3F5C" stroke-width="2" stroke-linecap="round" stroke-linejoin="round"/>
<path d="M9.63164 4.06873L5.36914 6.55623" stroke="#FB3F5C" stroke-width="2" stroke-linecap="round" stroke-linejoin="round"/>
</svg>
