<svg width="25" height="25" viewBox="0 0 25 25" fill="none" xmlns="http://www.w3.org/2000/svg">
<path d="M24.8563 4.73499C24.6901 4.55325 24.4225 4.50602 24.2041 4.61979C23.9797 4.7218 23.7474 4.80577 23.5096 4.87088C23.8805 4.39621 24.1606 3.85709 24.3357 3.28062C24.4127 2.99055 24.2401 2.69289 23.95 2.6158C23.7951 2.57463 23.63 2.60393 23.4987 2.69585C22.6723 3.14305 21.794 3.48662 20.8835 3.71871C19.0091 1.94956 16.154 1.72904 14.0301 3.18937C12.3941 4.29553 11.4934 6.20735 11.6822 8.17312C8.13583 7.87093 4.87292 6.11355 2.66905 3.31868C2.55584 3.18173 2.38454 3.10632 2.20707 3.11544C2.02711 3.12624 1.86427 3.22559 1.7723 3.38064C1.02433 4.60333 0.807629 6.07824 1.17229 7.46438C1.35928 8.17659 1.67982 8.84681 2.11689 9.43943C1.92001 9.34303 1.73475 9.22451 1.56472 9.08618C1.33162 8.8971 0.989374 8.93276 0.800241 9.16587C0.721775 9.26263 0.678874 9.38338 0.678823 9.50796C0.711127 11.5189 1.81535 13.3593 3.57452 14.3341C3.33718 14.305 3.10291 14.2548 2.87449 14.1841C2.58707 14.0977 2.28396 14.2605 2.19749 14.548C2.15979 14.6734 2.1686 14.8082 2.22231 14.9276C2.98582 16.6379 4.51223 17.8871 6.33978 18.2972C4.5986 19.2796 2.59364 19.6923 0.606013 19.4777C0.348299 19.4447 0.104137 19.6014 0.0266397 19.8494C-0.0532528 20.0955 0.0513004 20.3637 0.27666 20.4907C2.71037 21.9368 5.47894 22.7234 8.30937 22.7734C11.0248 22.7634 13.6769 21.9524 15.9334 20.4418C20.2411 17.5831 22.9259 12.4504 22.552 7.85793C23.473 7.17615 24.272 6.34339 24.9151 5.39487C25.0472 5.18699 25.0231 4.91623 24.8563 4.73499Z" fill="#03A9F4"/>
</svg>
