<svg width="41" height="41" viewBox="0 0 41 41" fill="none" xmlns="http://www.w3.org/2000/svg">
<circle cx="20.6877" cy="20.3894" r="20.0059" fill="#FB3F5C" fill-opacity="0.1"/>
<path d="M31.7178 13.9634C30.9296 14.354 30.0719 14.6352 29.1884 14.7447C30.1056 14.1185 30.7925 13.1294 31.1202 11.9628C30.2595 12.5511 29.3165 12.9636 28.3332 13.1821C27.9222 12.6773 27.4252 12.2751 26.873 12.0007C26.3208 11.7262 25.7254 11.5854 25.1238 11.5869C22.6897 11.5869 20.7321 13.8539 20.7321 16.6357C20.7321 17.0264 20.7733 17.417 20.8402 17.7929C17.1955 17.5739 13.9449 15.5733 11.7838 12.5103C11.39 13.283 11.1837 14.1629 11.1862 15.0584C11.1862 16.8104 11.9615 18.3552 13.1438 19.2637C12.4471 19.2322 11.7666 19.0122 11.1579 18.6215V18.6837C11.1579 21.1371 12.6673 23.1702 14.679 23.6378C14.3012 23.7505 13.9127 23.8082 13.5224 23.8095C13.2365 23.8095 12.9661 23.7769 12.693 23.7325C13.2494 25.7331 14.8696 27.1862 16.7988 27.2335C15.2894 28.5919 13.3988 29.391 11.3459 29.391C10.9776 29.391 10.6376 29.3762 10.2847 29.3288C12.232 30.7642 14.5424 31.5928 17.0307 31.5928C25.1083 31.5928 29.5284 23.9042 29.5284 17.2306C29.5284 17.0116 29.5284 16.7926 29.5155 16.5736C30.3707 15.8545 31.1202 14.9637 31.7178 13.9634Z" fill="#FB3F5C"/>
</svg>
