<svg width="32" height="27" viewBox="0 0 32 27" fill="none" xmlns="http://www.w3.org/2000/svg">
<path d="M30.6666 1.99998C29.3898 2.90062 27.9761 3.58946 26.4799 4.03998C25.6769 3.11666 24.6097 2.46224 23.4226 2.16521C22.2356 1.86819 20.9859 1.94291 19.8427 2.37925C18.6995 2.81559 17.7178 3.59252 17.0306 4.60494C16.3433 5.61736 15.9835 6.81643 15.9999 8.03998V9.37331C13.6568 9.43407 11.335 8.9144 9.24126 7.86057C7.14758 6.80675 5.34701 5.25149 3.99992 3.33331C3.99992 3.33331 -1.33341 15.3333 10.6666 20.6666C7.92062 22.5306 4.64946 23.4652 1.33325 23.3333C13.3333 30 27.9999 23.3333 27.9999 7.99998C27.9987 7.62858 27.963 7.25811 27.8933 6.89331C29.2541 5.5513 30.2144 3.85693 30.6666 1.99998V1.99998Z" stroke="#04172A" stroke-width="2" stroke-linecap="round" stroke-linejoin="round"/>
</svg>
